<mxfile host="app.diagrams.net" agent="Mozilla/5.0 (Windows NT 10.0; Win64; x64) AppleWebKit/537.36 (KHTML, like Gecko) Chrome/134.0.0.0 Safari/537.36" version="26.1.1">
  <diagram name="第 1 页" id="YDYsuVbqnp5C80Yua6IG">
    <mxGraphModel dx="1221" dy="725" grid="1" gridSize="10" guides="1" tooltips="1" connect="1" arrows="1" fold="1" page="1" pageScale="1" pageWidth="1654" pageHeight="2336" math="0" shadow="0">
      <root>
        <mxCell id="0" />
        <mxCell id="1" parent="0" />
        <mxCell id="7I64o3lQYL0VkBYSFgvM-1" value="" style="rounded=1;whiteSpace=wrap;html=1;overflow=visible;fillColor=#fff2cc;strokeColor=#d6b656;" vertex="1" parent="1">
          <mxGeometry x="360" y="95" width="330" height="315" as="geometry" />
        </mxCell>
        <mxCell id="7I64o3lQYL0VkBYSFgvM-2" value="" style="rounded=1;whiteSpace=wrap;html=1;overflow=visible;fillColor=#fff2cc;strokeColor=#d6b656;" vertex="1" parent="1">
          <mxGeometry x="60" y="95" width="160" height="315" as="geometry" />
        </mxCell>
        <mxCell id="7I64o3lQYL0VkBYSFgvM-3" value="" style="rounded=1;whiteSpace=wrap;html=1;overflow=visible;fillColor=#fff2cc;strokeColor=#d6b656;" vertex="1" parent="1">
          <mxGeometry x="870" y="85" width="160" height="315" as="geometry" />
        </mxCell>
        <mxCell id="7I64o3lQYL0VkBYSFgvM-4" value="Data Construction" style="text;html=1;align=center;verticalAlign=middle;whiteSpace=wrap;rounded=0;fontSize=14;fontStyle=1" vertex="1" parent="1">
          <mxGeometry x="110" y="370" width="60" height="30" as="geometry" />
        </mxCell>
        <mxCell id="7I64o3lQYL0VkBYSFgvM-5" value="" style="edgeStyle=orthogonalEdgeStyle;rounded=0;orthogonalLoop=1;jettySize=auto;html=1;" edge="1" parent="1" source="7I64o3lQYL0VkBYSFgvM-6" target="7I64o3lQYL0VkBYSFgvM-8">
          <mxGeometry relative="1" as="geometry" />
        </mxCell>
        <mxCell id="7I64o3lQYL0VkBYSFgvM-6" value="" style="rounded=1;whiteSpace=wrap;html=1;" vertex="1" parent="1">
          <mxGeometry x="80" y="150" width="120" height="60" as="geometry" />
        </mxCell>
        <mxCell id="7I64o3lQYL0VkBYSFgvM-7" style="edgeStyle=orthogonalEdgeStyle;rounded=0;orthogonalLoop=1;jettySize=auto;html=1;exitX=1;exitY=0.5;exitDx=0;exitDy=0;entryX=0;entryY=0.5;entryDx=0;entryDy=0;" edge="1" parent="1" source="7I64o3lQYL0VkBYSFgvM-8" target="7I64o3lQYL0VkBYSFgvM-12">
          <mxGeometry relative="1" as="geometry" />
        </mxCell>
        <mxCell id="7I64o3lQYL0VkBYSFgvM-8" value="" style="rounded=1;whiteSpace=wrap;html=1;" vertex="1" parent="1">
          <mxGeometry x="80" y="300" width="120" height="60" as="geometry" />
        </mxCell>
        <mxCell id="7I64o3lQYL0VkBYSFgvM-9" value="Real Cases" style="text;html=1;align=center;verticalAlign=middle;whiteSpace=wrap;rounded=0;fontSize=19;" vertex="1" parent="1">
          <mxGeometry x="110" y="165" width="60" height="30" as="geometry" />
        </mxCell>
        <mxCell id="7I64o3lQYL0VkBYSFgvM-10" value="Patient Profile" style="text;html=1;align=center;verticalAlign=middle;whiteSpace=wrap;rounded=0;fontSize=19;" vertex="1" parent="1">
          <mxGeometry x="110" y="315" width="60" height="30" as="geometry" />
        </mxCell>
        <mxCell id="7I64o3lQYL0VkBYSFgvM-11" value="Pre-treatment" style="text;html=1;align=center;verticalAlign=middle;whiteSpace=wrap;rounded=0;" vertex="1" parent="1">
          <mxGeometry x="140" y="237.5" width="60" height="30" as="geometry" />
        </mxCell>
        <mxCell id="7I64o3lQYL0VkBYSFgvM-12" value="" style="shape=hexagon;perimeter=hexagonPerimeter2;whiteSpace=wrap;html=1;fixedSize=1;" vertex="1" parent="1">
          <mxGeometry x="380" y="140" width="90" height="80" as="geometry" />
        </mxCell>
        <mxCell id="7I64o3lQYL0VkBYSFgvM-13" value="&lt;font style=&quot;font-size: 15px;&quot;&gt;Patient Prompt&lt;/font&gt;" style="rounded=0;whiteSpace=wrap;html=1;" vertex="1" parent="1">
          <mxGeometry x="230" y="237.5" width="113" height="30" as="geometry" />
        </mxCell>
        <mxCell id="7I64o3lQYL0VkBYSFgvM-14" value="" style="shape=hexagon;perimeter=hexagonPerimeter2;whiteSpace=wrap;html=1;fixedSize=1;" vertex="1" parent="1">
          <mxGeometry x="580" y="280" width="90" height="80" as="geometry" />
        </mxCell>
        <mxCell id="7I64o3lQYL0VkBYSFgvM-15" value="" style="curved=1;endArrow=classic;html=1;rounded=0;entryX=0.781;entryY=0.996;entryDx=0;entryDy=0;entryPerimeter=0;exitX=0;exitY=0.5;exitDx=0;exitDy=0;" edge="1" parent="1" source="7I64o3lQYL0VkBYSFgvM-14" target="7I64o3lQYL0VkBYSFgvM-12">
          <mxGeometry width="50" height="50" relative="1" as="geometry">
            <mxPoint x="580" y="340" as="sourcePoint" />
            <mxPoint x="610" y="340" as="targetPoint" />
            <Array as="points">
              <mxPoint x="520" y="320" />
              <mxPoint x="460" y="270" />
            </Array>
          </mxGeometry>
        </mxCell>
        <mxCell id="7I64o3lQYL0VkBYSFgvM-16" value="" style="curved=1;endArrow=classic;html=1;rounded=0;entryX=0.223;entryY=0.038;entryDx=0;entryDy=0;entryPerimeter=0;exitX=1;exitY=0.5;exitDx=0;exitDy=0;" edge="1" parent="1" source="7I64o3lQYL0VkBYSFgvM-12" target="7I64o3lQYL0VkBYSFgvM-14">
          <mxGeometry width="50" height="50" relative="1" as="geometry">
            <mxPoint x="560" y="390" as="sourcePoint" />
            <mxPoint x="610" y="340" as="targetPoint" />
            <Array as="points">
              <mxPoint x="520" y="180" />
              <mxPoint x="600" y="220" />
            </Array>
          </mxGeometry>
        </mxCell>
        <mxCell id="7I64o3lQYL0VkBYSFgvM-17" value="&lt;font style=&quot;font-size: 19px;&quot;&gt;Patient LLM&lt;/font&gt;" style="text;html=1;align=center;verticalAlign=middle;whiteSpace=wrap;rounded=0;" vertex="1" parent="1">
          <mxGeometry x="395" y="165" width="60" height="30" as="geometry" />
        </mxCell>
        <mxCell id="7I64o3lQYL0VkBYSFgvM-18" value="&lt;font style=&quot;font-size: 19px;&quot;&gt;Doctor&lt;/font&gt;&lt;div&gt;&lt;font style=&quot;font-size: 19px;&quot;&gt;&amp;nbsp;LLM&lt;/font&gt;&lt;/div&gt;" style="text;html=1;align=center;verticalAlign=middle;whiteSpace=wrap;rounded=0;" vertex="1" parent="1">
          <mxGeometry x="595" y="305" width="60" height="30" as="geometry" />
        </mxCell>
        <mxCell id="7I64o3lQYL0VkBYSFgvM-19" value="&lt;font style=&quot;font-size: 15px;&quot;&gt;Conversation History&lt;/font&gt;" style="rounded=0;whiteSpace=wrap;html=1;" vertex="1" parent="1">
          <mxGeometry x="480" y="227.5" width="100" height="50" as="geometry" />
        </mxCell>
        <mxCell id="7I64o3lQYL0VkBYSFgvM-20" value="&lt;font&gt;&lt;b&gt;Dialogue Simulation&lt;/b&gt;&lt;/font&gt;" style="text;html=1;align=center;verticalAlign=middle;whiteSpace=wrap;rounded=0;fontSize=14;" vertex="1" parent="1">
          <mxGeometry x="415" y="380" width="230" height="30" as="geometry" />
        </mxCell>
        <mxCell id="7I64o3lQYL0VkBYSFgvM-21" style="edgeStyle=orthogonalEdgeStyle;rounded=0;orthogonalLoop=1;jettySize=auto;html=1;exitX=0.5;exitY=1;exitDx=0;exitDy=0;" edge="1" parent="1" source="7I64o3lQYL0VkBYSFgvM-22" target="7I64o3lQYL0VkBYSFgvM-14">
          <mxGeometry relative="1" as="geometry" />
        </mxCell>
        <mxCell id="7I64o3lQYL0VkBYSFgvM-22" value="&lt;font style=&quot;font-size: 15px;&quot;&gt;Doctor Prompt&lt;/font&gt;" style="rounded=0;whiteSpace=wrap;html=1;" vertex="1" parent="1">
          <mxGeometry x="568.5" y="130" width="113" height="30" as="geometry" />
        </mxCell>
        <mxCell id="7I64o3lQYL0VkBYSFgvM-23" style="edgeStyle=orthogonalEdgeStyle;rounded=0;orthogonalLoop=1;jettySize=auto;html=1;exitX=1;exitY=0.5;exitDx=0;exitDy=0;entryX=0;entryY=0.5;entryDx=0;entryDy=0;" edge="1" parent="1" source="7I64o3lQYL0VkBYSFgvM-24" target="7I64o3lQYL0VkBYSFgvM-27">
          <mxGeometry relative="1" as="geometry">
            <Array as="points">
              <mxPoint x="850" y="259" />
              <mxPoint x="850" y="170" />
            </Array>
          </mxGeometry>
        </mxCell>
        <mxCell id="7I64o3lQYL0VkBYSFgvM-24" value="&lt;font style=&quot;font-size: 15px;&quot;&gt;Consultation Form&lt;/font&gt;" style="rounded=0;whiteSpace=wrap;html=1;" vertex="1" parent="1">
          <mxGeometry x="727" y="212.5" width="100" height="92.5" as="geometry" />
        </mxCell>
        <mxCell id="7I64o3lQYL0VkBYSFgvM-25" value="" style="endArrow=none;html=1;rounded=0;exitX=0;exitY=0.5;exitDx=0;exitDy=0;entryX=1;entryY=0.5;entryDx=0;entryDy=0;" edge="1" parent="1" source="7I64o3lQYL0VkBYSFgvM-24" target="7I64o3lQYL0VkBYSFgvM-14">
          <mxGeometry width="50" height="50" relative="1" as="geometry">
            <mxPoint x="560" y="360" as="sourcePoint" />
            <mxPoint x="610" y="310" as="targetPoint" />
            <Array as="points">
              <mxPoint x="710" y="259" />
              <mxPoint x="710" y="320" />
            </Array>
          </mxGeometry>
        </mxCell>
        <mxCell id="7I64o3lQYL0VkBYSFgvM-26" style="edgeStyle=orthogonalEdgeStyle;rounded=0;orthogonalLoop=1;jettySize=auto;html=1;exitX=0.5;exitY=1;exitDx=0;exitDy=0;" edge="1" parent="1" source="7I64o3lQYL0VkBYSFgvM-27" target="7I64o3lQYL0VkBYSFgvM-30">
          <mxGeometry relative="1" as="geometry" />
        </mxCell>
        <mxCell id="7I64o3lQYL0VkBYSFgvM-27" value="" style="shape=hexagon;perimeter=hexagonPerimeter2;whiteSpace=wrap;html=1;fixedSize=1;" vertex="1" parent="1">
          <mxGeometry x="905" y="130" width="90" height="80" as="geometry" />
        </mxCell>
        <mxCell id="7I64o3lQYL0VkBYSFgvM-28" value="&lt;font style=&quot;font-size: 17px;&quot;&gt;&lt;table&gt;&lt;tbody&gt;&lt;tr&gt;&lt;td&gt;&lt;/td&gt;&lt;/tr&gt;&lt;/tbody&gt;&lt;/table&gt;&lt;table style=&quot;&quot;&gt;&lt;tbody&gt;&lt;tr&gt;&lt;td&gt;Evaluation&lt;/td&gt;&lt;/tr&gt;&lt;/tbody&gt;&lt;/table&gt;&amp;nbsp;LLM&lt;/font&gt;" style="text;html=1;align=center;verticalAlign=middle;whiteSpace=wrap;rounded=0;" vertex="1" parent="1">
          <mxGeometry x="920" y="155" width="60" height="30" as="geometry" />
        </mxCell>
        <mxCell id="7I64o3lQYL0VkBYSFgvM-29" value="" style="endArrow=none;dashed=1;html=1;dashPattern=1 3;strokeWidth=2;rounded=0;exitX=0.5;exitY=0;exitDx=0;exitDy=0;entryX=0;entryY=0.5;entryDx=0;entryDy=0;" edge="1" parent="1" source="7I64o3lQYL0VkBYSFgvM-19" target="7I64o3lQYL0VkBYSFgvM-27">
          <mxGeometry width="50" height="50" relative="1" as="geometry">
            <mxPoint x="560" y="350" as="sourcePoint" />
            <mxPoint x="610" y="300" as="targetPoint" />
            <Array as="points">
              <mxPoint x="530" y="170" />
            </Array>
          </mxGeometry>
        </mxCell>
        <mxCell id="7I64o3lQYL0VkBYSFgvM-30" value="&lt;font style=&quot;font-size: 17px;&quot;&gt;Scores in Every Dimension&lt;/font&gt;" style="whiteSpace=wrap;html=1;aspect=fixed;" vertex="1" parent="1">
          <mxGeometry x="898.75" y="250" width="102.5" height="102.5" as="geometry" />
        </mxCell>
        <mxCell id="7I64o3lQYL0VkBYSFgvM-31" value="Comprehensive evaluation" style="text;html=1;align=center;verticalAlign=middle;whiteSpace=wrap;rounded=0;fontStyle=1;fontSize=14;" vertex="1" parent="1">
          <mxGeometry x="920" y="360" width="60" height="30" as="geometry" />
        </mxCell>
      </root>
    </mxGraphModel>
  </diagram>
</mxfile>
